<?xml version="1.0" encoding="UTF-8"?>
<svg id="social-media-icons" xmlns="http://www.w3.org/2000/svg" viewBox="0 0 200 200">
  <defs>
    <style>
      .cls-1 {
        fill: #fff;
      }
    </style>
  </defs>
  <path id="instagram" class="cls-1" d="m127.78,100c0,15.32-12.46,27.78-27.78,27.78s-27.77-12.46-27.77-27.78,12.46-27.78,27.77-27.78,27.78,12.47,27.78,27.78Zm38.89-33.33v66.67c0,18.69-14.64,33.33-33.33,33.33h-66.67c-18.69,0-33.33-14.64-33.33-33.33v-66.67c0-18.69,14.64-33.33,33.33-33.33h66.67c18.69,0,33.33,14.64,33.33,33.33Zm-27.78,33.33c0-21.44-17.45-38.89-38.89-38.89s-38.89,17.45-38.89,38.89,17.45,38.89,38.89,38.89,38.89-17.45,38.89-38.89Zm5.56-44.44c0-3.07-2.49-5.56-5.56-5.56s-5.55,2.49-5.55,5.56,2.49,5.55,5.55,5.55,5.56-2.48,5.56-5.55Zm55.55-19.75v128.39c0,19.77-16.03,35.8-35.8,35.8H35.81c-19.78,0-35.81-16.03-35.81-35.8V35.81C0,16.03,16.03,0,35.81,0h128.39c19.77,0,35.8,16.03,35.8,35.81Zm-22.22,30.86c0-24.93-19.52-44.45-44.44-44.45h-66.67c-24.92,0-44.44,19.52-44.44,44.45v66.67c0,24.92,19.52,44.44,44.44,44.44h66.67c24.92,0,44.44-19.52,44.44-44.44v-66.67Z"/>
</svg>