<?xml version="1.0" encoding="UTF-8"?>
<svg id="social-media-icons" xmlns="http://www.w3.org/2000/svg" viewBox="0 0 200 200">
  <defs>
    <style>
      .cls-1 {
        fill: #fff;
      }
    </style>
  </defs>
  <path id="twitter" class="cls-1" d="m168.14,0H31.86C14.26,0,0,14.27,0,31.86v136.28c0,17.6,14.26,31.86,31.86,31.86h136.28c17.6,0,31.86-14.26,31.86-31.86V31.86c0-17.59-14.26-31.86-31.86-31.86Zm-1.82,62.59c-3.39,6.08-6.99,10.57-11.04,11.82,6.07,62.52-56.45,101.86-121.6,70.6,17.87-.36,33.59-2.89,43.69-11.04-18.84-.85-28.82-7.09-32.81-16.95,7.47.93,11.48.42,16.02-2.18-18.04-7.47-22.03-15.5-21.93-25.5,5.46,3.82,11.04,5.75,16.8,4.82-15.19-12.75-18.46-25.29-13.53-38.88,16.33,19.75,36.39,34.37,58.14,33.59-2.24-39.44,27.54-47.58,46.2-31.57,5.21-.44,12.41-2.59,20.06-5.13-4.1,5.58-9.5,9.93-15.86,13.38,5.36.52,10.63-.7,15.86-2.96Zm-40.89,29.08"/>
</svg>